PathFileType	4	(X/Y/Z)	C:/Users/CLatella/Desktop/xsens/test 22settembre2016/Meri Veloce/Meri-002_My MVN System.trc	
DataRate	CameraRate	NumFrames	NumMarkers	Units	OrigDataRate	OrigDataStartFrame	OrigNumFrames	
240.00	240.00	4	64	mm	240.00	150	597	
Frame#	Time	pHipOrigin			pRightASI			pLeftASI			pRightCSI			pLeftCSI			pRightIschialTub			pLeftIschialTub			pSacrum			pL5SpinalProcess			pL3SpinalProcess			pT12SpinalProcess			pPX			pIJ			pT4SpinalProcess			pT8SpinalProcess			pC7SpinalProcess			pTopOfHead			pRightAuricularis			pLeftAuricularis			pBackOfHead			pRightAcromion			pLeftAcromion			pRightArmLatEpicondyle			pRightArmMedEpicondyle			pLeftArmLatEpicondyle			pLeftArmMedEpicondyle			pRightUlnarStyloid			pRightRadialStyloid			pRightOlecranon			pLeftUlnarStyloid			pLeftRadialStyloid			pLeftOlecranon			pRightTopOfHand			pRightPinky			pRightBallHand			pLeftTopOfHand			pLeftPinky			pLeftBallHand			pRightGreaterTrochanter			pRightKneeLatEpicondyle			pRightKneeMedEpicondyle			pRightPatella			pLeftGreaterTrochanter			pLeftKneeLatEpicondyle			pLeftKneeMedEpicondyle			pLeftPatella			pRightLatMalleolus			pRightMedMalleolus			pRightTibialTub			pLeftLatMalleolus			pLeftMedMalleolus			pLeftTibialTub			pRightHeelFoot			pRightFirstMetatarsal			pRightFifthMetatarsal			pRightPivotFoot			pRightHeelCenter			pRightToe			pLeftHeelFoot			pLeftFirstMetatarsal			pLeftFifthMetatarsal			pLeftPivotFoot			pLeftHeelCenter			pLeftToe			
		X1	Y1	Z1	X2	Y2	Z2	X3	Y3	Z3	X4	Y4	Z4	X5	Y5	Z5	X6	Y6	Z6	X7	Y7	Z7	X8	Y8	Z8	X9	Y9	Z9	X10	Y10	Z10	X11	Y11	Z11	X12	Y12	Z12	X13	Y13	Z13	X14	Y14	Z14	X15	Y15	Z15	X16	Y16	Z16	X17	Y17	Z17	X18	Y18	Z18	X19	Y19	Z19	X20	Y20	Z20	X21	Y21	Z21	X22	Y22	Z22	X23	Y23	Z23	X24	Y24	Z24	X25	Y25	Z25	X26	Y26	Z26	X27	Y27	Z27	X28	Y28	Z28	X29	Y29	Z29	X30	Y30	Z30	X31	Y31	Z31	X32	Y32	Z32	X33	Y33	Z33	X34	Y34	Z34	X35	Y35	Z35	X36	Y36	Z36	X37	Y37	Z37	X38	Y38	Z38	X39	Y39	Z39	X40	Y40	Z40	X41	Y41	Z41	X42	Y42	Z42	X43	Y43	Z43	X44	Y44	Z44	X45	Y45	Z45	X46	Y46	Z46	X47	Y47	Z47	X48	Y48	Z48	X49	Y49	Z49	X50	Y50	Z50	X51	Y51	Z51	X52	Y52	Z52	X53	Y53	Z53	X54	Y54	Z54	X55	Y55	Z55	X56	Y56	Z56	X57	Y57	Z57	X58	Y58	Z58	X59	Y59	Z59	X60	Y60	Z60	X61	Y61	Z61	X62	Y62	Z62	X63	Y63	Z63	X64	Y64	Z64	

150	0.621	84.29125	196.09492	927.85523	179.40706	79.83113	965.99176	171.99023	319.27441	961.43141	180.96059	102.23196	1045.37187	174.84671	300.13097	1041.61334	17.33934	144.12701	911.46805	14.28241	243.10158	909.56373	34.92925	195.54367	979.97348	102.23196	198.55050	1030.58832	170.23625	196.59606	1112.32378	238.04009	192.83753	1177.37136	384.97347	191.98560	1115.98208	475.27837	183.41616	1179.52625	380.26279	181.01070	1277.29809	312.25849	187.17468	1233.54883	418.14875	178.10410	1302.45517	657.14100	180.10865	1378.77834	569.79282	112.30481	1341.94477	567.93861	242.75078	1337.43453	535.46493	178.40479	1378.57788	434.18513	17.64002	1281.00650	406.97339	358.56355	1257.40295	320.92816	-19.44412	984.93474	304.08996	39.13880	985.08508	286.29959	379.71154	967.94619	276.47731	319.52498	967.04415	346.93717	21.79946	757.51875	384.37211	48.51007	767.59161	294.46813	-5.76308	980.67507	360.16719	341.12398	751.05408	392.94155	311.50678	767.44126	265.35206	366.78220	960.02823	529.95242	20.59673	714.07017	450.02106	1.05239	709.05880	390.53610	26.35981	734.36622	534.11186	380.61358	717.17722	454.88209	393.29235	736.27054	398.05315	354.05332	742.88555	71.51226	49.71279	900.69360	90.75592	73.41658	520.78161	110.35038	144.47781	520.48093	140.76939	100.37775	524.84082	90.55546	346.08524	904.15145	56.82894	358.36310	524.74060	47.50779	285.64811	517.47411	92.81058	314.41338	519.92968	122.52801	57.58065	96.31854	118.41868	120.27289	93.21149	169.08364	111.90390	489.61089	57.63076	377.20585	96.31854	64.79702	314.86440	92.35956	118.91982	327.74362	488.20770	85.59421	87.89944	-0.25057	229.97179	118.86971	6.76535	229.22008	52.11825	7.71751	248.51386	86.19557	8.26876	124.88335	87.54864	6.06376	325.28805	85.39375	11.47604	23.00219	339.21966	0.80182	170.78750	338.51807	1.80409	156.40487	403.71600	2.85648	182.31366	374.29926	2.55580	61.63986	347.63877	5.51251	257.38398	390.88689	2.35534 
151	0.625	84.49171	196.14504	927.85523	179.65763	79.88124	965.69108	172.29091	319.32452	961.13073	181.46172	102.28207	1045.07118	175.34785	300.18109	1041.31266	17.43957	144.22724	911.66850	14.38263	243.15169	909.76418	35.22993	195.59379	980.12382	102.68298	198.60061	1030.53821	170.98796	196.64617	1112.07321	238.99225	192.88765	1176.92034	385.72518	192.08583	1115.02992	476.23053	183.56650	1178.27341	381.56574	181.06081	1276.34593	313.36099	187.22480	1232.79712	419.50182	178.15422	1301.40278	658.74464	180.35922	1376.97425	571.29623	112.45515	1340.34113	569.34179	242.90112	1335.83090	537.06857	178.55513	1377.12459	435.43797	17.79036	1280.00423	408.12601	358.61367	1256.45079	320.82793	-19.74480	984.53383	303.98973	38.83812	984.63406	286.04902	379.96210	967.54528	276.27685	319.72543	966.64324	346.88706	21.69923	757.06773	384.32200	48.40984	767.24081	294.41801	-6.06376	980.22405	360.16719	341.12398	750.75340	392.89144	311.50678	767.14058	265.15161	366.98265	959.62732	529.95242	20.59673	713.86971	450.02106	1.00227	708.75812	390.53610	26.30969	734.01542	534.11186	380.61358	717.07699	454.88209	393.29235	736.07009	398.05315	354.05332	742.63498	71.66260	49.76291	900.69360	90.85615	73.41658	520.78161	110.50072	144.42770	520.48093	140.91974	100.37775	524.84082	90.70580	346.13535	904.15145	56.87905	358.46333	524.74060	47.55791	285.69823	517.47411	92.81058	314.46349	519.92968	122.57812	57.58065	96.31854	118.46880	120.22278	93.16138	169.18386	111.90390	489.61089	57.53053	377.20585	96.31854	64.74691	314.86440	92.35956	118.96993	327.79374	488.20770	85.64432	87.84932	-0.25057	229.97179	118.86971	6.76535	229.27020	52.11825	7.71751	248.51386	86.19557	8.26876	124.93346	87.54864	6.06376	325.33817	85.39375	11.47604	22.95208	339.16955	0.80182	170.73739	338.61830	1.80409	156.30464	403.76611	2.85648	182.21343	374.39948	2.55580	61.53963	347.63877	5.51251	257.28376	391.03723	2.40546 
152	0.629	84.64205	196.19515	927.85523	179.90820	79.93136	965.44051	172.54148	319.37464	960.88016	181.96286	102.33218	1044.82062	175.84899	300.23120	1041.06209	17.53980	144.27735	911.86896	14.48286	243.20181	909.96464	35.53062	195.64390	980.27417	103.13400	198.65072	1030.48810	171.68955	196.64617	1111.82264	239.89430	192.88765	1176.41920	386.42677	192.23617	1114.07775	477.13258	183.66673	1177.02057	382.81859	181.11093	1275.44388	314.46349	187.27491	1232.09553	420.85489	178.20433	1300.35039	660.29816	180.60979	1375.17015	572.84975	112.60549	1338.83772	570.69486	243.05146	1334.32748	538.62209	178.65535	1375.67129	436.69082	17.84048	1279.05207	409.22851	358.66378	1255.54874	320.72771	-20.04548	984.08281	303.93962	38.53744	984.23315	285.79845	380.16256	967.19449	276.07640	319.92589	966.29244	346.78683	21.64912	756.66682	384.22177	48.35972	766.83990	294.31778	-6.36444	979.77303	360.11708	341.12398	750.45272	392.79121	311.50678	766.94013	264.95115	367.18311	959.22641	529.95242	20.54662	713.71937	450.02106	1.00227	708.45743	390.48598	26.25958	733.61451	534.11186	380.56347	717.02688	454.88209	393.29235	735.91974	398.00304	354.05332	742.38441	71.81294	49.76291	900.74372	90.95637	73.41658	520.78161	110.60094	144.42770	520.48093	141.01996	100.37775	524.84082	90.85615	346.18547	904.15145	56.87905	358.51344	524.74060	47.55791	285.74834	517.52422	92.86069	314.51361	519.92968	122.62823	57.58065	96.31854	118.51891	120.22278	93.16138	169.33421	111.90390	489.61089	57.48042	377.20585	96.31854	64.64668	314.86440	92.35956	118.96993	327.84385	488.20770	85.69443	87.84932	-0.25057	230.02190	118.81959	6.76535	229.27020	52.11825	7.71751	248.56397	86.19557	8.26876	124.98358	87.49853	6.06376	325.38828	85.39375	11.47604	22.85185	339.16955	0.85193	170.68728	338.66841	1.80409	156.20442	403.81623	2.85648	182.11320	374.44960	2.55580	61.48951	347.63877	5.51251	257.18353	391.13746	2.40546 
153	0.633	84.79239	196.19515	927.85523	180.15877	79.98147	965.18994	172.79205	319.42475	960.62959	182.46400	102.33218	1044.51993	176.35012	300.28131	1040.76141	17.64002	144.27735	912.06941	14.58309	243.25192	910.21521	35.88141	195.69401	980.42451	103.63514	198.70084	1030.43798	172.39114	196.69629	1111.52196	240.79635	192.93776	1175.96818	387.17848	192.28628	1113.17571	478.08474	183.76695	1175.81784	384.02131	181.11093	1274.49172	315.56599	187.27491	1231.39394	422.15784	178.25445	1299.29801	661.85169	180.81024	1373.36606	574.30305	112.75583	1337.33431	572.04793	243.20181	1332.82407	540.12550	178.75558	1374.26811	437.94366	17.94071	1278.15002	410.33101	358.71389	1254.64669	320.57736	-20.34616	983.73201	303.83939	38.23676	983.83224	285.49777	380.36301	966.84369	275.82583	320.17646	965.94165	346.68660	21.54889	756.26591	384.12154	48.25950	766.48910	294.16744	-6.66512	979.37212	360.01685	341.12398	750.20215	392.69098	311.50678	766.73967	264.65047	367.38356	958.87561	529.90231	20.54662	713.56903	449.97095	0.95216	708.15675	390.43587	26.20947	733.31383	534.06174	380.56347	716.97676	454.78186	393.29235	735.76940	397.90281	354.05332	742.18396	72.01339	49.81302	900.74372	91.10671	73.36646	520.83173	110.70117	144.42770	520.48093	141.17030	100.37775	524.84082	91.00649	346.23558	904.20156	56.92917	358.56355	524.79071	47.55791	285.79845	517.52422	92.86069	314.56372	519.97979	122.67835	57.53053	96.31854	118.51891	120.17266	93.21149	169.43443	111.90390	489.61089	57.43030	377.20585	96.31854	64.59656	314.86440	92.40967	118.96993	327.84385	488.20770	85.69443	87.79921	-0.25057	230.07202	118.81959	6.76535	229.32031	52.06814	7.71751	248.61409	86.14546	8.26876	125.03369	87.49853	6.06376	325.38828	85.34364	11.47604	22.80174	339.16955	0.85193	170.58705	338.61830	1.80409	156.20442	403.76611	2.85648	182.06309	374.39948	2.55580	61.43940	347.63877	5.51251	257.18353	390.98712	2.40546 
